<?xml version="1.0" standalone="no"?>
<!DOCTYPE svg PUBLIC "-//W3C//DTD SVG 20010904//EN"
 "http://www.w3.org/TR/2001/REC-SVG-20010904/DTD/svg10.dtd">
<svg version="1.0" xmlns="http://www.w3.org/2000/svg"
 width="700.000000pt" height="700.000000pt" viewBox="0 0 700.000000 700.000000"
 preserveAspectRatio="xMidYMid meet">
<metadata>
Created by potrace 1.15, written by Peter Selinger 2001-2017
</metadata>
<g transform="translate(0.000000,700.000000) scale(0.100000,-0.100000)"
fill="#000000" stroke="none">
<path d="M3470 6589 c-180 -48 -351 -142 -380 -211 -12 -27 -10 -77 4 -109 7
-17 -41 -56 -117 -96 -44 -22 -173 -128 -323 -266 l-53 -49 -88 23 c-48 12
-129 24 -178 27 l-90 4 -35 51 c-19 27 -38 55 -43 61 -4 6 -16 33 -27 60 -13
30 -24 46 -30 40 -15 -15 16 -89 62 -150 22 -30 39 -57 36 -59 -3 -3 -27 -10
-54 -15 -81 -18 -118 -27 -135 -34 -10 -4 -20 -3 -24 3 -10 18 -45 13 -45 -6
0 -16 -2 -16 -15 -2 -19 18 -10 49 14 49 9 1 32 14 51 30 26 23 31 33 23 41
-9 9 -20 9 -45 -1 -18 -8 -36 -18 -39 -23 -4 -5 -15 -6 -26 -3 -20 6 -39 68
-27 87 14 24 103 73 157 88 46 12 62 21 62 34 0 9 14 26 31 36 35 21 84 77 84
96 0 30 -33 84 -87 141 -66 70 -94 88 -138 86 -39 -2 -101 -27 -112 -47 -5 -8
-46 -25 -91 -38 -46 -14 -89 -30 -95 -36 -7 -7 5 -6 32 4 24 8 63 15 88 15 37
0 50 6 80 35 19 19 51 39 69 45 30 10 39 9 77 -13 63 -38 147 -147 147 -192 0
-24 -90 -105 -117 -105 -13 0 -23 -5 -23 -10 0 -6 -28 -23 -62 -39 -35 -15
-77 -40 -94 -54 -43 -36 -54 -35 -40 6 20 58 43 84 80 91 44 8 153 96 119 96
-5 0 -32 -18 -62 -40 -61 -46 -88 -51 -97 -16 -8 31 8 60 64 119 61 62 35 61
-30 -1 -51 -48 -51 -49 -49 -109 1 -59 0 -62 -39 -97 -22 -20 -44 -36 -48 -36
-11 0 -52 28 -84 58 -16 14 -28 22 -28 16 1 -15 23 -39 67 -71 49 -35 43 -49
-21 -60 -46 -7 -67 11 -101 85 -30 66 -32 127 -5 162 24 30 26 48 4 29 -20
-16 -54 -83 -54 -105 0 -24 70 -167 89 -181 22 -17 80 -16 111 2 46 26 66 10
39 -33 -8 -13 -5 -30 15 -74 18 -39 26 -74 26 -112 l0 -55 -64 -38 c-67 -40
-146 -101 -146 -113 0 -3 -20 -28 -45 -53 -25 -26 -45 -54 -45 -62 0 -8 -4
-15 -9 -15 -17 0 -93 -192 -116 -295 -44 -195 -9 -458 87 -665 69 -149 101
-211 110 -216 17 -11 22 7 8 29 -22 35 -110 215 -127 261 -86 232 -96 487 -28
687 36 106 89 208 137 266 42 51 184 173 201 173 5 0 41 19 80 42 82 49 109
62 187 90 116 41 334 40 460 -2 l62 -21 72 65 c39 36 96 89 126 116 59 55 208
164 265 194 35 19 36 19 79 -2 34 -17 61 -22 127 -22 75 0 93 4 164 36 92 41
164 63 185 56 46 -14 92 -95 110 -190 27 -152 108 -243 202 -228 119 19 146
127 84 345 -14 51 -26 100 -26 108 0 19 19 13 155 -49 61 -28 144 -63 185 -78
107 -40 170 -69 170 -80 0 -6 -8 -10 -18 -10 -10 0 -72 -21 -137 -47 -152 -59
-194 -100 -198 -190 -3 -71 34 -125 97 -143 76 -21 158 -9 288 43 118 47 186
59 205 35 16 -20 40 -105 53 -188 14 -87 42 -142 99 -193 34 -30 49 -37 84
-37 55 0 103 30 124 77 10 21 19 40 20 42 7 11 54 -34 83 -79 l33 -51 -7 -146
c-7 -167 -21 -305 -42 -413 -8 -41 -21 -118 -30 -170 -9 -52 -19 -102 -23
-110 -5 -8 -42 -31 -84 -52 -73 -36 -102 -58 -76 -58 7 0 51 20 98 44 111 57
178 76 266 76 94 0 161 -32 213 -101 34 -46 52 -60 52 -40 0 13 -66 96 -89
112 -20 13 -21 23 -24 239 -4 251 -19 349 -81 529 -19 53 -37 116 -41 139 -13
77 -107 250 -251 462 -30 43 -269 267 -295 275 -10 4 -19 10 -19 15 0 4 -10
10 -23 14 -13 3 -52 24 -87 47 -79 52 -301 150 -401 178 -101 27 -273 61 -316
61 -27 0 -41 7 -62 31 -58 70 -92 97 -140 113 -75 24 -169 20 -301 -15z"/>
<path d="M3209 6051 c-71 -24 -151 -65 -168 -85 -8 -9 -19 -16 -25 -16 -16 -1
-60 -39 -53 -47 4 -3 21 5 39 19 82 61 201 113 294 128 68 11 174 -10 244 -49
30 -16 69 -37 86 -45 18 -9 46 -34 64 -56 37 -46 49 -47 26 -1 -18 35 -92 86
-191 133 -62 29 -81 33 -165 35 -71 2 -109 -2 -151 -16z"/>
<path d="M3175 5843 c-96 -14 -230 -93 -288 -170 -70 -94 -84 -242 -32 -358
32 -74 139 -181 215 -217 120 -56 260 -62 373 -18 72 29 172 119 212 191 28
50 30 62 30 154 0 93 -2 105 -32 165 -74 147 -215 240 -383 253 -36 3 -78 3
-95 0z m105 -244 c94 -42 140 -99 140 -171 0 -96 -118 -169 -224 -140 -50 14
-121 69 -140 110 -45 92 7 185 119 213 47 11 57 10 105 -12z"/>
<path d="M4240 5629 c-65 -12 -199 -82 -240 -124 -44 -45 -16 -37 55 17 27 21
84 51 125 68 98 39 196 41 317 5 186 -54 289 -137 364 -294 14 -30 29 -50 32
-45 3 5 -8 39 -25 74 -46 99 -159 206 -261 249 -130 53 -258 71 -367 50z"/>
<path d="M4041 5375 c-45 -16 -83 -40 -129 -81 -87 -77 -106 -121 -107 -239 0
-81 3 -97 33 -159 53 -112 156 -202 291 -253 55 -22 83 -26 171 -26 93 0 113
3 174 28 44 18 88 46 125 81 48 44 61 63 77 116 25 84 24 175 -5 261 -26 78
-85 145 -188 215 -122 83 -305 107 -442 57z m308 -253 c71 -49 93 -90 88 -164
-4 -67 -22 -92 -85 -119 -49 -21 -111 -23 -159 -6 -54 20 -119 82 -138 131
-61 159 137 266 294 158z"/>
<path d="M2419 4721 c-30 -10 -82 -36 -115 -58 -81 -55 -180 -163 -189 -205
-4 -18 -14 -53 -23 -78 -26 -70 -23 -237 6 -318 12 -34 22 -67 22 -73 0 -14
-30 -4 -113 37 -37 19 -73 34 -80 34 -18 0 -185 127 -239 183 -27 26 -48 44
-48 39 0 -19 141 -153 203 -192 l67 -43 0 -77 c0 -43 -9 -131 -19 -196 -11
-66 -22 -146 -25 -179 -15 -148 -62 -384 -108 -545 -50 -171 -51 -176 -45
-275 8 -140 40 -220 146 -362 57 -77 152 -167 204 -194 19 -10 44 -28 93 -68
17 -14 5 -56 -19 -66 -20 -9 -22 -18 -22 -80 1 -94 11 -139 40 -173 30 -36 71
-178 90 -310 8 -56 19 -110 24 -120 13 -24 107 -112 120 -112 15 0 61 -83 61
-111 0 -13 4 -29 8 -35 10 -16 48 -34 70 -34 11 0 25 -6 31 -14 14 -16 49 -22
226 -36 72 -5 135 -12 141 -14 8 -3 9 -17 3 -48 -13 -60 -46 -253 -54 -313 -5
-39 -36 -131 -50 -153 -1 -1 -21 0 -43 4 -34 5 -41 10 -39 28 1 12 -3 20 -10
19 -8 -2 -13 7 -13 22 0 30 -4 31 -31 4 -19 -19 -23 -19 -42 -6 -15 11 -22 24
-21 46 2 36 -19 42 -36 11 -6 -11 -17 -20 -24 -20 -15 0 -140 -119 -133 -127
3 -2 15 1 27 7 17 9 26 8 45 -4 26 -17 65 -21 65 -7 0 5 -17 13 -37 18 l-38 9
25 15 c14 8 25 21 25 29 0 8 5 15 12 15 6 0 14 3 18 7 7 7 56 -8 65 -20 3 -4
18 -18 34 -30 31 -23 30 -24 -24 -27 -59 -4 -61 -5 -56 -14 12 -18 -7 -41 -33
-41 -15 0 -31 -8 -39 -20 -7 -12 -23 -20 -40 -20 -35 0 -41 -6 -35 -30 8 -29
64 -33 88 -6 11 12 32 30 48 39 15 10 27 23 27 30 0 7 14 21 30 30 l30 18 45
-36 c24 -20 47 -46 51 -57 9 -29 -23 -52 -76 -56 -54 -4 -61 -9 -37 -26 9 -7
17 -19 17 -26 0 -8 6 -10 18 -5 22 9 232 85 255 92 13 4 17 0 17 -20 0 -29
-39 -64 -79 -73 -14 -3 -60 -14 -101 -24 -41 -10 -102 -23 -135 -28 -33 -6
-116 -22 -184 -36 -115 -25 -161 -27 -161 -6 0 4 30 11 68 15 76 7 240 43 262
57 9 5 -11 7 -56 3 -57 -5 -73 -4 -83 9 -8 9 -20 16 -27 16 -8 0 -20 11 -26
25 -9 19 -19 25 -45 25 -31 0 -73 28 -73 48 0 10 60 72 70 72 4 0 26 -7 48
-14 28 -10 44 -11 48 -5 11 19 -12 30 -67 32 -50 2 -58 -1 -91 -33 -35 -33
-110 -77 -171 -99 -15 -6 -32 -22 -37 -36 -12 -31 -13 -105 -2 -123 13 -20
117 -42 200 -42 76 1 112 7 282 48 47 12 138 33 204 47 126 27 170 44 180 70
10 28 7 69 -9 99 -8 15 -15 47 -15 70 0 61 -19 157 -38 188 -15 25 -15 36 2
135 9 59 20 135 24 168 l7 60 70 3 c73 3 95 13 95 42 0 10 7 21 16 24 16 6 16
8 0 24 -22 25 -20 38 10 97 14 28 39 84 55 125 16 41 35 86 43 100 7 14 19 43
26 64 16 50 88 161 129 200 l31 30 67 -21 c38 -12 81 -24 96 -28 16 -3 60 -20
98 -37 58 -26 78 -41 126 -102 32 -39 75 -89 96 -110 40 -41 90 -113 127 -181
11 -22 25 -47 30 -55 5 -8 22 -39 39 -67 17 -29 30 -63 28 -75 -1 -17 5 -24
30 -31 17 -5 33 -18 36 -28 3 -10 17 -21 31 -24 14 -3 37 -7 51 -10 14 -3 25
-11 25 -18 0 -13 85 -184 102 -205 6 -7 13 -11 15 -8 5 5 -62 141 -88 178 -35
48 -32 49 164 46 153 -2 190 1 231 15 69 25 74 29 94 68 9 19 22 34 27 34 6 0
15 -38 21 -85 10 -75 35 -150 51 -150 9 0 -9 144 -19 157 -5 7 -7 16 -5 20 3
5 8 47 11 94 2 47 11 98 20 115 8 16 19 41 25 57 9 23 15 26 36 21 30 -7 30
-11 9 146 -24 185 -35 374 -21 379 46 16 167 186 167 235 0 23 -18 29 -36 12
-16 -17 -44 -22 -44 -8 0 15 16 30 38 37 19 5 22 12 18 28 -4 12 -9 36 -12 52
-6 30 -6 30 45 32 29 1 56 5 61 8 22 13 8 45 -32 74 -23 17 -35 31 -26 31 18
0 30 23 23 43 -6 13 -51 37 -72 37 -19 0 -16 -51 5 -66 16 -12 16 -14 -3 -28
-11 -8 -24 -11 -28 -6 -11 10 -39 117 -77 297 -29 133 -30 148 -16 159 21 15
20 21 -3 27 -13 3 -20 16 -23 41 -2 20 0 36 4 36 12 0 98 -83 98 -93 0 -5 -9
-6 -19 -2 -11 3 -22 1 -25 -4 -8 -12 26 -23 46 -16 10 4 31 -13 63 -49 41 -49
82 -81 174 -137 14 -8 39 -40 54 -70 23 -44 27 -57 17 -72 -6 -11 -8 -22 -4
-25 4 -4 8 -2 11 3 15 42 32 59 68 70 71 21 191 91 208 121 18 32 147 -1 197
-51 31 -31 34 -40 34 -87 -1 -34 -9 -69 -23 -97 -42 -81 -169 -181 -230 -181
-25 0 -82 27 -93 44 -15 22 -8 55 18 86 41 48 19 49 -27 0 l-40 -42 -62 20
c-34 11 -64 18 -67 15 -10 -9 32 -31 81 -43 35 -9 55 -20 70 -41 40 -56 121
-75 192 -46 47 20 152 124 181 181 65 123 7 245 -123 262 -47 6 -53 10 -67 42
-8 20 -28 57 -44 83 -17 28 -27 55 -23 67 5 20 -19 72 -154 332 -155 300 -175
341 -171 344 1 2 30 20 62 42 33 21 74 53 91 70 35 34 140 222 131 232 -8 7
-6 9 -62 -88 -69 -121 -90 -147 -156 -190 -86 -56 -160 -68 -264 -42 -131 33
-212 68 -318 137 -23 15 -78 17 -478 20 -493 3 -806 20 -1163 61 -226 26 -323
41 -339 55 -4 4 5 14 20 22 44 23 118 102 149 159 89 163 85 406 -9 537 -67
94 -170 175 -257 202 -80 25 -222 25 -300 0z m-435 -745 c-3 -8 10 -25 30 -41
37 -28 47 -55 21 -55 -8 0 -15 -7 -15 -15 0 -9 -6 -18 -14 -21 -8 -3 -12 -12
-9 -21 8 -22 69 -10 101 19 20 18 24 19 19 6 -8 -23 2 -48 19 -48 17 0 17 -5
3 -32 -7 -13 -8 -23 -1 -30 7 -7 16 1 28 23 17 32 19 32 22 11 2 -13 -1 -29
-7 -36 -9 -10 -4 -16 21 -27 24 -10 33 -10 36 -1 2 7 13 17 24 23 19 10 20 9
15 -12 -8 -30 9 -49 45 -49 16 0 42 -7 58 -15 28 -14 30 -20 30 -70 0 -50 2
-55 25 -61 15 -4 32 -1 40 6 13 10 15 9 15 -10 0 -16 4 -20 16 -16 9 3 22 6
30 6 8 0 14 5 14 11 0 7 8 18 18 25 16 11 15 13 -11 23 -16 6 -33 8 -39 5 -7
-4 -8 -2 -4 4 5 8 30 10 79 6 110 -9 114 -9 122 17 4 11 9 18 12 16 2 -3 -1
-15 -7 -27 -9 -17 -9 -24 0 -30 8 -5 6 -16 -9 -41 -12 -19 -21 -46 -21 -61 0
-16 -4 -28 -10 -28 -5 0 -12 -17 -16 -37 -4 -21 -11 -41 -17 -44 -5 -4 -10
-19 -12 -35 -1 -16 -4 -36 -8 -44 -3 -8 -8 -36 -12 -62 -3 -27 -10 -48 -14
-48 -5 0 -6 -10 -4 -23 4 -18 -4 -27 -38 -46 l-42 -24 -18 21 c-22 28 -26 28
-32 -4 -3 -18 2 -33 14 -45 20 -20 39 -25 39 -10 0 5 14 14 30 20 29 10 30 9
30 -23 0 -17 -4 -36 -9 -41 -18 -19 -34 -299 -19 -328 6 -12 6 -23 -2 -32 -12
-15 -6 -237 9 -320 21 -118 43 -287 37 -292 -3 -4 -17 -1 -31 5 -14 7 -39 12
-55 12 -16 0 -35 7 -44 15 -8 8 -27 15 -43 15 -15 0 -39 9 -53 20 -14 11 -31
20 -39 20 -8 0 -24 8 -35 19 -23 20 -135 81 -151 81 -5 0 -17 13 -26 29 -10
17 -29 31 -46 35 -15 4 -43 24 -62 46 -19 22 -39 40 -46 40 -7 0 -25 18 -40
40 -15 22 -31 40 -36 40 -4 0 -19 25 -33 56 -15 31 -34 64 -44 73 -34 30 -81
225 -69 287 3 16 10 54 15 84 6 30 16 67 22 82 11 23 16 26 32 17 11 -6 21 -9
23 -7 7 7 -8 57 -16 52 -5 -3 -9 0 -9 5 0 6 7 11 15 11 18 0 20 27 3 33 -10 3
-9 9 4 23 10 11 16 34 16 54 -1 19 6 82 14 140 9 58 19 137 22 175 9 101 27
215 39 249 13 36 18 77 17 145 0 39 4 59 17 71 20 19 35 17 27 -4z m948 -227
c29 -6 62 -19 72 -28 11 -9 16 -11 13 -4 -4 6 -4 14 0 16 5 3 107 -6 228 -18
121 -13 274 -26 340 -29 223 -12 295 -18 295 -25 0 -9 -166 -61 -192 -61 -9 0
-20 -4 -23 -10 -16 -25 129 6 233 50 59 25 78 28 122 23 50 -6 52 -7 45 -32
-24 -102 -29 -199 -17 -399 9 -160 18 -230 38 -307 24 -95 25 -114 26 -380 1
-154 -3 -300 -8 -324 l-9 -45 -65 -12 c-36 -7 -83 -17 -105 -23 -59 -16 -313
-13 -424 4 -53 8 -127 20 -166 26 -206 33 -473 92 -534 118 -110 47 -200 92
-211 106 -7 9 -11 94 -11 247 -1 214 1 243 25 348 14 63 34 160 46 215 19 97
66 231 129 367 17 37 34 80 37 95 13 53 34 93 49 93 8 0 38 -5 67 -11z m1696
-108 c2 -7 7 -9 11 -4 10 17 61 25 61 11 0 -7 -44 -56 -97 -109 -54 -53 -120
-119 -148 -148 -27 -28 -52 -51 -55 -51 -3 0 -14 37 -24 83 -9 45 -22 95 -29
111 -8 23 -8 31 1 34 7 2 12 15 12 28 0 17 -6 24 -20 24 -20 0 -28 26 -10 32
6 2 74 3 152 3 110 0 142 -3 146 -14z m230 -63 c2 -4 17 -8 32 -8 20 0 39 -11
64 -37 31 -33 38 -36 55 -26 24 15 37 0 16 -17 -22 -19 -18 -27 17 -34 38 -8
43 -4 28 23 -9 17 -8 21 5 21 8 0 15 -7 15 -15 0 -18 11 -19 46 -3 25 11 29
10 54 -20 32 -38 50 -41 50 -7 0 18 5 25 20 25 18 0 25 -11 21 -33 -1 -5 7
-16 18 -25 28 -23 39 -72 17 -72 -9 0 -16 -5 -16 -11 0 -23 22 -49 41 -49 16
0 18 -5 13 -24 -3 -14 -1 -33 4 -43 10 -16 12 -15 22 11 13 34 11 36 49 -38
37 -69 37 -71 11 -98 -25 -27 -26 -48 -2 -48 10 0 23 -5 30 -12 9 -9 12 -8 12
5 0 37 20 13 69 -83 54 -105 58 -120 40 -148 -9 -14 -5 -24 24 -55 46 -50 54
-89 25 -122 -12 -14 -27 -25 -34 -25 -6 0 -17 -7 -24 -14 -18 -23 -99 -59
-115 -52 -21 8 -46 -4 -39 -18 3 -6 -6 2 -20 17 -14 15 -26 32 -26 38 0 12 17
12 25 -1 11 -18 23 -10 44 30 28 54 28 77 1 50 -15 -15 -25 -18 -38 -11 -11 6
-36 6 -67 0 -51 -10 -75 -7 -75 9 0 5 10 7 23 5 12 -2 29 1 37 6 12 8 11 14
-10 36 -29 31 -66 31 -63 0 1 -11 0 -14 -3 -7 -3 6 -15 12 -26 12 -17 0 -18 2
-8 15 15 18 -1 65 -23 65 -7 0 -19 20 -26 44 -7 25 -19 47 -27 50 -8 3 -14 11
-14 19 0 23 -46 59 -71 55 -32 -4 -33 -20 -4 -52 14 -16 25 -32 23 -38 -2 -5
-12 1 -23 12 -11 12 -32 34 -46 48 -14 15 -29 39 -32 54 -5 18 -16 30 -31 34
-17 4 -22 11 -19 24 5 20 -29 49 -55 45 -9 -1 -11 0 -4 2 30 10 6 42 -43 58
-16 5 -17 8 -5 15 12 7 4 19 -37 60 -53 51 -70 59 -91 38 -9 -9 -17 -7 -35 10
-26 24 -57 29 -57 10 -1 -7 -10 -2 -20 11 -11 13 -20 20 -20 15 0 -4 -5 -3
-12 4 -9 9 -16 8 -28 -3 -15 -14 -18 -14 -30 0 -7 8 -19 15 -26 15 -25 0 -15
16 42 66 78 67 164 151 164 158 0 11 34 46 45 46 5 0 18 14 27 30 l17 30 48
-32 c26 -18 50 -36 51 -40z m-710 -76 c5 -36 8 -38 41 -26 23 9 32 8 51 -8 14
-12 20 -22 14 -26 -16 -11 -25 -43 -19 -63 7 -21 44 -26 62 -8 8 8 17 6 34
-10 34 -32 19 -38 -71 -29 -22 3 -25 -1 -25 -27 0 -28 3 -30 35 -30 21 0 36 5
36 13 3 25 6 26 14 5 11 -26 60 -33 60 -9 0 22 52 31 66 11 8 -11 31 -18 66
-20 68 -4 68 -4 38 -16 l-25 -10 25 -19 c14 -11 33 -20 42 -20 36 0 48 -12 48
-46 0 -29 4 -34 33 -42 22 -6 32 -14 32 -28 0 -16 -11 -21 -65 -30 -64 -10
-64 -10 -28 -18 21 -4 41 -14 46 -22 5 -9 22 -17 38 -19 47 -4 65 -15 59 -35
-5 -15 -2 -17 15 -13 15 4 20 1 20 -13 0 -13 3 -15 8 -7 6 9 12 8 24 -6 9 -10
22 -21 29 -24 11 -4 11 -8 2 -14 -6 -5 -17 -21 -23 -37 l-10 -29 50 5 c27 3
50 4 50 2 0 -2 -23 -15 -50 -29 -28 -14 -48 -30 -45 -35 3 -6 2 -10 -2 -10 -5
0 -7 -18 -5 -41 3 -29 7 -38 15 -30 6 6 23 11 38 11 15 0 32 7 39 15 7 8 16
15 21 15 5 0 9 -7 9 -15 0 -8 -7 -15 -15 -15 -8 0 -40 -17 -70 -37 -40 -27
-55 -44 -55 -60 0 -16 6 -23 20 -23 11 0 20 5 20 10 0 6 13 10 29 10 16 0 34
7 41 15 13 16 40 21 40 8 -1 -19 -18 -33 -33 -27 -10 3 -25 -4 -41 -19 -17
-17 -32 -23 -49 -20 -18 4 -29 -2 -41 -18 -15 -22 -15 -24 1 -30 10 -3 28 -1
41 4 16 8 25 8 30 0 11 -16 49 -25 57 -13 8 13 25 13 25 0 0 -6 -8 -13 -17
-17 -28 -10 -55 -41 -42 -48 6 -4 8 -14 5 -22 -5 -12 -1 -14 19 -11 30 6 44
-9 18 -20 -47 -20 -81 -48 -91 -76 -17 -43 -2 -51 46 -27 23 12 43 17 46 12 8
-12 -13 -28 -49 -37 -17 -4 -42 -15 -57 -25 -14 -11 -34 -19 -45 -19 -13 0
-14 -3 -5 -8 9 -6 10 -16 3 -34 -11 -29 5 -43 30 -27 8 5 26 9 40 9 14 0 34 7
45 15 31 24 43 18 41 -20 -2 -37 -11 -45 -21 -20 -7 19 -55 20 -62 1 -3 -8
-15 -11 -29 -8 -17 3 -27 -1 -32 -14 -4 -10 -2 -19 5 -22 7 -2 12 -10 12 -18
0 -19 17 -18 30 4 10 16 10 16 20 0 12 -19 55 -24 65 -8 3 6 24 10 47 10 31 0
41 4 45 19 4 16 8 17 29 7 24 -11 32 -26 14 -26 -6 0 -10 -7 -8 -16 2 -10 -3
-19 -9 -21 -7 -3 -13 2 -13 11 0 18 -27 21 -50 6 -13 -9 -13 -11 -1 -19 8 -5
20 -7 28 -4 7 3 13 1 13 -3 0 -13 -40 -47 -75 -64 -16 -8 -34 -21 -38 -27 -4
-7 -16 -13 -25 -13 -9 0 -32 -9 -51 -21 -23 -14 -46 -19 -68 -17 -25 3 -32 1
-29 -9 3 -8 -2 -13 -12 -13 -10 0 -22 -4 -27 -9 -16 -15 -136 -38 -182 -35
-23 2 -45 -1 -48 -7 -8 -12 -55 -12 -55 1 0 16 -70 12 -76 -5 -8 -20 -44 -19
-44 1 0 13 -11 15 -67 11 -38 -3 -69 -6 -70 -6 -2 -1 -3 -8 -3 -16 0 -11 -13
-15 -54 -15 l-54 0 10 38 c6 20 14 44 19 53 9 17 40 144 65 262 7 38 16 73 19
78 3 4 5 140 5 301 -1 281 -5 338 -35 436 -5 15 -3 22 6 22 11 0 11 2 1 8 -17
11 -23 42 -28 137 -2 44 -7 119 -12 167 -4 48 -4 95 -1 105 4 10 8 12 8 6 1
-21 28 -15 34 8 8 29 -2 49 -24 49 -25 0 -24 16 1 23 13 3 20 14 20 29 0 47
21 47 28 0z m-1898 -3164 c22 -16 45 -22 92 -23 93 -2 139 -28 95 -52 -30 -17
-35 -16 -33 5 1 11 -4 15 -14 13 -8 -3 -30 -4 -49 -4 -19 1 -43 -4 -54 -12
-21 -15 -46 -10 -63 14 -6 8 -31 17 -55 20 l-44 6 30 28 c36 33 56 34 95 5z"/>
<path d="M4975 931 c-4 -42 -9 -84 -11 -93 -7 -22 -30 -23 -38 -2 -3 8 -10 12
-16 9 -24 -15 1 -110 31 -118 29 -8 61 30 57 68 -1 17 6 42 15 55 12 17 17 44
17 86 0 57 -2 62 -24 66 -24 5 -25 3 -31 -71z"/>
<path d="M4451 665 c14 -38 18 -60 11 -68 -13 -15 -32 -141 -32 -208 0 -46 2
-51 20 -46 11 3 22 1 25 -3 3 -5 42 -21 87 -35 45 -15 94 -35 109 -46 34 -24
39 -24 39 1 0 11 -6 20 -14 20 -28 0 -64 39 -68 76 -4 30 0 38 19 47 13 5 23
14 23 19 0 4 7 8 15 8 8 0 15 8 14 18 0 10 -3 12 -6 5 -2 -7 -12 -13 -21 -12
-11 0 -12 2 -4 6 6 2 12 11 12 18 0 7 8 12 17 11 22 -1 29 32 8 40 -9 4 -24
-1 -35 -11 -19 -17 -20 -17 -20 4 0 12 7 33 16 46 18 27 9 31 -30 14 -29 -14
-57 -70 -38 -77 24 -8 0 -22 -38 -22 -30 0 -43 6 -64 31 -14 17 -26 40 -26 51
0 24 7 19 24 -14 19 -38 34 -33 26 9 -8 42 -70 173 -82 173 -4 0 2 -25 13 -55z"/>
<path d="M4432 284 c2 -21 14 -30 63 -50 125 -51 181 -83 245 -142 44 -40 122
-57 260 -57 106 1 132 4 172 22 54 25 63 44 56 128 -5 58 -22 86 -67 108 -28
14 -111 11 -111 -4 0 -21 -61 -39 -117 -36 -52 3 -58 6 -57 26 1 29 -26 24
-37 -7 -7 -20 -5 -25 11 -29 13 -4 20 -14 20 -30 0 -30 -29 -75 -44 -67 -6 3
0 -3 14 -14 21 -18 45 -26 105 -37 6 -1 29 -3 53 -3 23 -1 42 -6 42 -12 0 -16
-108 -12 -174 7 -55 15 -166 74 -206 108 -8 7 -58 32 -110 55 -52 23 -96 46
-98 51 -8 20 -23 7 -20 -17z m730 -21 c25 -30 28 -50 9 -67 -10 -9 -27 -16
-39 -16 -11 0 -37 -15 -56 -34 -35 -32 -38 -33 -83 -24 -27 6 -58 12 -69 14
-12 2 -24 13 -27 23 -8 34 22 49 107 53 75 3 81 5 105 36 30 37 33 38 53 15z"/>
</g>
</svg>
